<mxfile host="app.diagrams.net" agent="Mozilla/5.0 (Windows NT 10.0; Win64; x64) AppleWebKit/537.36 (KHTML, like Gecko) Chrome/135.0.0.0 Safari/537.36" version="26.2.14">
  <diagram name="Σελίδα-1" id="eCMHA4aFZcYW-mKRLLhf">
    <mxGraphModel dx="2053" dy="1798" grid="1" gridSize="10" guides="1" tooltips="1" connect="1" arrows="1" fold="1" page="1" pageScale="1" pageWidth="827" pageHeight="1169" math="0" shadow="0">
      <root>
        <mxCell id="0" />
        <mxCell id="1" parent="0" />
        <mxCell id="GWFYVoU88pxUAnFRdsqJ-6" value="eShopScreen" style="shape=umlLifeline;perimeter=lifelinePerimeter;whiteSpace=wrap;html=1;container=1;dropTarget=0;collapsible=0;recursiveResize=0;outlineConnect=0;portConstraint=eastwest;newEdgeStyle={&quot;curved&quot;:0,&quot;rounded&quot;:0};" vertex="1" parent="1">
          <mxGeometry x="150" y="70" width="100" height="650" as="geometry" />
        </mxCell>
        <mxCell id="GWFYVoU88pxUAnFRdsqJ-7" value="ItemList" style="shape=umlLifeline;perimeter=lifelinePerimeter;whiteSpace=wrap;html=1;container=1;dropTarget=0;collapsible=0;recursiveResize=0;outlineConnect=0;portConstraint=eastwest;newEdgeStyle={&quot;curved&quot;:0,&quot;rounded&quot;:0};" vertex="1" parent="1">
          <mxGeometry x="280" y="70" width="100" height="650" as="geometry" />
        </mxCell>
        <mxCell id="GWFYVoU88pxUAnFRdsqJ-8" value="PaymentScreen" style="shape=umlLifeline;perimeter=lifelinePerimeter;whiteSpace=wrap;html=1;container=1;dropTarget=0;collapsible=0;recursiveResize=0;outlineConnect=0;portConstraint=eastwest;newEdgeStyle={&quot;curved&quot;:0,&quot;rounded&quot;:0};" vertex="1" parent="1">
          <mxGeometry x="440" y="70" width="100" height="560" as="geometry" />
        </mxCell>
        <mxCell id="GWFYVoU88pxUAnFRdsqJ-9" value="PaymentConfirmationScreen" style="shape=umlLifeline;perimeter=lifelinePerimeter;whiteSpace=wrap;html=1;container=1;dropTarget=0;collapsible=0;recursiveResize=0;outlineConnect=0;portConstraint=eastwest;newEdgeStyle={&quot;curved&quot;:0,&quot;rounded&quot;:0};" vertex="1" parent="1">
          <mxGeometry x="580" y="70" width="160" height="570" as="geometry" />
        </mxCell>
        <mxCell id="GWFYVoU88pxUAnFRdsqJ-10" value="" style="shape=umlLifeline;perimeter=lifelinePerimeter;whiteSpace=wrap;html=1;container=1;dropTarget=0;collapsible=0;recursiveResize=0;outlineConnect=0;portConstraint=eastwest;newEdgeStyle={&quot;curved&quot;:0,&quot;rounded&quot;:0};participant=umlActor;" vertex="1" parent="1">
          <mxGeometry x="50" y="80" width="20" height="630" as="geometry" />
        </mxCell>
        <mxCell id="GWFYVoU88pxUAnFRdsqJ-12" value="" style="shape=umlLifeline;perimeter=lifelinePerimeter;whiteSpace=wrap;html=1;container=1;dropTarget=0;collapsible=0;recursiveResize=0;outlineConnect=0;portConstraint=eastwest;newEdgeStyle={&quot;curved&quot;:0,&quot;rounded&quot;:0};participant=umlActor;" vertex="1" parent="1">
          <mxGeometry x="-20" y="80" width="20" height="630" as="geometry" />
        </mxCell>
        <mxCell id="GWFYVoU88pxUAnFRdsqJ-13" value="API πληρωμής" style="text;strokeColor=none;align=center;fillColor=none;html=1;verticalAlign=middle;whiteSpace=wrap;rounded=0;" vertex="1" parent="1">
          <mxGeometry x="-40" y="50" width="60" height="30" as="geometry" />
        </mxCell>
        <mxCell id="GWFYVoU88pxUAnFRdsqJ-14" value="actor" style="text;strokeColor=none;align=center;fillColor=none;html=1;verticalAlign=middle;whiteSpace=wrap;rounded=0;" vertex="1" parent="1">
          <mxGeometry x="30" y="50" width="60" height="30" as="geometry" />
        </mxCell>
        <mxCell id="GWFYVoU88pxUAnFRdsqJ-18" value="DBManager" style="shape=umlLifeline;perimeter=lifelinePerimeter;whiteSpace=wrap;html=1;container=1;dropTarget=0;collapsible=0;recursiveResize=0;outlineConnect=0;portConstraint=eastwest;newEdgeStyle={&quot;curved&quot;:0,&quot;rounded&quot;:0};" vertex="1" parent="1">
          <mxGeometry x="780" y="70" width="100" height="660" as="geometry" />
        </mxCell>
        <mxCell id="GWFYVoU88pxUAnFRdsqJ-100" value="" style="html=1;points=[[0,0,0,0,5],[0,1,0,0,-5],[1,0,0,0,5],[1,1,0,0,-5]];perimeter=orthogonalPerimeter;outlineConnect=0;targetShapes=umlLifeline;portConstraint=eastwest;newEdgeStyle={&quot;curved&quot;:0,&quot;rounded&quot;:0};fillColor=#3333FF;" vertex="1" parent="GWFYVoU88pxUAnFRdsqJ-18">
          <mxGeometry x="47" y="370" width="10" height="60" as="geometry" />
        </mxCell>
        <mxCell id="GWFYVoU88pxUAnFRdsqJ-72" value="&lt;font style=&quot;font-size: 14px;&quot;&gt;SD 1- Καλάθι αγορών που αφορά κτηνιατρικά είδη&lt;/font&gt;" style="shape=umlFrame;whiteSpace=wrap;html=1;pointerEvents=0;align=center;" vertex="1" parent="1">
          <mxGeometry x="-120" y="30" width="1130" height="730" as="geometry" />
        </mxCell>
        <mxCell id="GWFYVoU88pxUAnFRdsqJ-76" value="select Item" style="html=1;verticalAlign=bottom;endArrow=block;curved=0;rounded=0;" edge="1" parent="1" target="GWFYVoU88pxUAnFRdsqJ-80">
          <mxGeometry x="0.1852" y="-20" width="80" relative="1" as="geometry">
            <mxPoint x="60" y="150" as="sourcePoint" />
            <mxPoint x="180" y="150" as="targetPoint" />
            <mxPoint as="offset" />
          </mxGeometry>
        </mxCell>
        <mxCell id="GWFYVoU88pxUAnFRdsqJ-80" value="" style="html=1;points=[[0,0,0,0,5],[0,1,0,0,-5],[1,0,0,0,5],[1,1,0,0,-5]];perimeter=orthogonalPerimeter;outlineConnect=0;targetShapes=umlLifeline;portConstraint=eastwest;newEdgeStyle={&quot;curved&quot;:0,&quot;rounded&quot;:0};fillColor=#3333FF;" vertex="1" parent="1">
          <mxGeometry x="195" y="150" width="10" height="40" as="geometry" />
        </mxCell>
        <mxCell id="GWFYVoU88pxUAnFRdsqJ-81" value="" style="html=1;points=[[0,0,0,0,5],[0,1,0,0,-5],[1,0,0,0,5],[1,1,0,0,-5]];perimeter=orthogonalPerimeter;outlineConnect=0;targetShapes=umlLifeline;portConstraint=eastwest;newEdgeStyle={&quot;curved&quot;:0,&quot;rounded&quot;:0};fillColor=#3333FF;" vertex="1" parent="1">
          <mxGeometry x="325" y="190" width="10" height="60" as="geometry" />
        </mxCell>
        <mxCell id="GWFYVoU88pxUAnFRdsqJ-83" value="display()" style="html=1;verticalAlign=bottom;endArrow=block;curved=0;rounded=0;" edge="1" parent="1" target="GWFYVoU88pxUAnFRdsqJ-6">
          <mxGeometry x="0.3527" width="80" relative="1" as="geometry">
            <mxPoint x="325" y="190" as="sourcePoint" />
            <mxPoint x="235" y="190" as="targetPoint" />
            <mxPoint as="offset" />
          </mxGeometry>
        </mxCell>
        <mxCell id="GWFYVoU88pxUAnFRdsqJ-84" value="" style="html=1;points=[[0,0,0,0,5],[0,1,0,0,-5],[1,0,0,0,5],[1,1,0,0,-5]];perimeter=orthogonalPerimeter;outlineConnect=0;targetShapes=umlLifeline;portConstraint=eastwest;newEdgeStyle={&quot;curved&quot;:0,&quot;rounded&quot;:0};fillColor=#3333FF;" vertex="1" parent="1">
          <mxGeometry x="827" y="210" width="10" height="40" as="geometry" />
        </mxCell>
        <mxCell id="GWFYVoU88pxUAnFRdsqJ-85" value="searchItem (Item_name)" style="html=1;verticalAlign=bottom;endArrow=block;curved=0;rounded=0;" edge="1" parent="1">
          <mxGeometry width="80" relative="1" as="geometry">
            <mxPoint x="327.5" y="210" as="sourcePoint" />
            <mxPoint x="826.9999999999995" y="210" as="targetPoint" />
          </mxGeometry>
        </mxCell>
        <mxCell id="GWFYVoU88pxUAnFRdsqJ-86" value="return Search (Item_name)" style="html=1;verticalAlign=bottom;endArrow=open;dashed=1;endSize=8;curved=0;rounded=0;" edge="1" parent="1" target="GWFYVoU88pxUAnFRdsqJ-7">
          <mxGeometry relative="1" as="geometry">
            <mxPoint x="830" y="250" as="sourcePoint" />
            <mxPoint x="750" y="250" as="targetPoint" />
          </mxGeometry>
        </mxCell>
        <mxCell id="GWFYVoU88pxUAnFRdsqJ-87" value="" style="html=1;points=[[0,0,0,0,5],[0,1,0,0,-5],[1,0,0,0,5],[1,1,0,0,-5]];perimeter=orthogonalPerimeter;outlineConnect=0;targetShapes=umlLifeline;portConstraint=eastwest;newEdgeStyle={&quot;curved&quot;:0,&quot;rounded&quot;:0};fillColor=#3333FF;" vertex="1" parent="1">
          <mxGeometry x="485" y="287.5" width="10" height="72.5" as="geometry" />
        </mxCell>
        <mxCell id="GWFYVoU88pxUAnFRdsqJ-88" value="" style="html=1;points=[[0,0,0,0,5],[0,1,0,0,-5],[1,0,0,0,5],[1,1,0,0,-5]];perimeter=orthogonalPerimeter;outlineConnect=0;targetShapes=umlLifeline;portConstraint=eastwest;newEdgeStyle={&quot;curved&quot;:0,&quot;rounded&quot;:0};fillColor=#3333FF;" vertex="1" parent="1">
          <mxGeometry x="195" y="287.5" width="10" height="32.5" as="geometry" />
        </mxCell>
        <mxCell id="GWFYVoU88pxUAnFRdsqJ-91" value="dislapy()" style="html=1;verticalAlign=bottom;endArrow=block;curved=0;rounded=0;entryX=0;entryY=0;entryDx=0;entryDy=5;entryPerimeter=0;" edge="1" parent="1" target="GWFYVoU88pxUAnFRdsqJ-87">
          <mxGeometry width="80" relative="1" as="geometry">
            <mxPoint x="205" y="290" as="sourcePoint" />
            <mxPoint x="480" y="290" as="targetPoint" />
          </mxGeometry>
        </mxCell>
        <mxCell id="GWFYVoU88pxUAnFRdsqJ-92" value="" style="html=1;verticalAlign=bottom;endArrow=block;curved=0;rounded=0;entryX=0.694;entryY=0.744;entryDx=0;entryDy=0;entryPerimeter=0;" edge="1" parent="1" source="GWFYVoU88pxUAnFRdsqJ-10" target="GWFYVoU88pxUAnFRdsqJ-87">
          <mxGeometry width="80" relative="1" as="geometry">
            <mxPoint x="60" y="350" as="sourcePoint" />
            <mxPoint x="480" y="340" as="targetPoint" />
          </mxGeometry>
        </mxCell>
        <mxCell id="GWFYVoU88pxUAnFRdsqJ-93" value="provide user details" style="edgeLabel;html=1;align=center;verticalAlign=middle;resizable=0;points=[];" vertex="1" connectable="0" parent="GWFYVoU88pxUAnFRdsqJ-92">
          <mxGeometry x="0.0284" y="4" relative="1" as="geometry">
            <mxPoint x="-9" y="-6" as="offset" />
          </mxGeometry>
        </mxCell>
        <mxCell id="GWFYVoU88pxUAnFRdsqJ-95" value="" style="html=1;points=[[0,0,0,0,5],[0,1,0,0,-5],[1,0,0,0,5],[1,1,0,0,-5]];perimeter=orthogonalPerimeter;outlineConnect=0;targetShapes=umlLifeline;portConstraint=eastwest;newEdgeStyle={&quot;curved&quot;:0,&quot;rounded&quot;:0};fillColor=#3333FF;" vertex="1" parent="1">
          <mxGeometry x="655" y="353" width="10" height="147" as="geometry" />
        </mxCell>
        <mxCell id="GWFYVoU88pxUAnFRdsqJ-97" value="display()" style="html=1;verticalAlign=bottom;endArrow=block;curved=0;rounded=0;exitX=1;exitY=1;exitDx=0;exitDy=-5;exitPerimeter=0;" edge="1" parent="1" source="GWFYVoU88pxUAnFRdsqJ-87" target="GWFYVoU88pxUAnFRdsqJ-95">
          <mxGeometry width="80" relative="1" as="geometry">
            <mxPoint x="490" y="350" as="sourcePoint" />
            <mxPoint x="570" y="350" as="targetPoint" />
          </mxGeometry>
        </mxCell>
        <mxCell id="GWFYVoU88pxUAnFRdsqJ-98" value="select to pay" style="html=1;verticalAlign=bottom;endArrow=block;curved=0;rounded=0;" edge="1" parent="1" target="GWFYVoU88pxUAnFRdsqJ-95">
          <mxGeometry width="80" relative="1" as="geometry">
            <mxPoint x="60" y="400" as="sourcePoint" />
            <mxPoint x="140" y="400" as="targetPoint" />
          </mxGeometry>
        </mxCell>
        <mxCell id="GWFYVoU88pxUAnFRdsqJ-99" value="handle payment" style="html=1;verticalAlign=bottom;endArrow=block;curved=0;rounded=0;" edge="1" parent="1" target="GWFYVoU88pxUAnFRdsqJ-95">
          <mxGeometry width="80" relative="1" as="geometry">
            <mxPoint x="-10" y="440" as="sourcePoint" />
            <mxPoint x="70" y="440" as="targetPoint" />
          </mxGeometry>
        </mxCell>
        <mxCell id="GWFYVoU88pxUAnFRdsqJ-101" value="savePayment (payment_id)" style="html=1;verticalAlign=bottom;endArrow=block;curved=0;rounded=0;" edge="1" parent="1" target="GWFYVoU88pxUAnFRdsqJ-18">
          <mxGeometry width="80" relative="1" as="geometry">
            <mxPoint x="660" y="460" as="sourcePoint" />
            <mxPoint x="740" y="460" as="targetPoint" />
          </mxGeometry>
        </mxCell>
        <mxCell id="GWFYVoU88pxUAnFRdsqJ-102" value="return Payment (payment_id)" style="html=1;verticalAlign=bottom;endArrow=open;dashed=1;endSize=8;curved=0;rounded=0;" edge="1" parent="1" target="GWFYVoU88pxUAnFRdsqJ-95">
          <mxGeometry relative="1" as="geometry">
            <mxPoint x="830" y="500" as="sourcePoint" />
            <mxPoint x="750" y="500" as="targetPoint" />
          </mxGeometry>
        </mxCell>
        <mxCell id="GWFYVoU88pxUAnFRdsqJ-103" value="alt" style="shape=umlFrame;whiteSpace=wrap;html=1;pointerEvents=0;" vertex="1" parent="1">
          <mxGeometry x="80" y="120" width="910" height="510" as="geometry" />
        </mxCell>
        <mxCell id="GWFYVoU88pxUAnFRdsqJ-104" value="has availability" style="text;align=center;fontStyle=1;verticalAlign=middle;spacingLeft=3;spacingRight=3;strokeColor=none;rotatable=0;points=[[0,0.5],[1,0.5]];portConstraint=eastwest;html=1;" vertex="1" parent="1">
          <mxGeometry x="374" y="157" width="80" height="26" as="geometry" />
        </mxCell>
        <mxCell id="GWFYVoU88pxUAnFRdsqJ-105" value="does not have availability" style="text;align=center;fontStyle=1;verticalAlign=middle;spacingLeft=3;spacingRight=3;strokeColor=none;rotatable=0;points=[[0,0.5],[1,0.5]];portConstraint=eastwest;html=1;" vertex="1" parent="1">
          <mxGeometry x="360" y="520" width="80" height="26" as="geometry" />
        </mxCell>
        <mxCell id="GWFYVoU88pxUAnFRdsqJ-107" value="MessageScreen" style="shape=umlLifeline;perimeter=lifelinePerimeter;whiteSpace=wrap;html=1;container=1;dropTarget=0;collapsible=0;recursiveResize=0;outlineConnect=0;portConstraint=eastwest;newEdgeStyle={&quot;curved&quot;:0,&quot;rounded&quot;:0};" vertex="1" parent="1">
          <mxGeometry x="900" y="70" width="100" height="560" as="geometry" />
        </mxCell>
        <mxCell id="GWFYVoU88pxUAnFRdsqJ-109" value="" style="html=1;points=[[0,0,0,0,5],[0,1,0,0,-5],[1,0,0,0,5],[1,1,0,0,-5]];perimeter=orthogonalPerimeter;outlineConnect=0;targetShapes=umlLifeline;portConstraint=eastwest;newEdgeStyle={&quot;curved&quot;:0,&quot;rounded&quot;:0};fillColor=#3333FF;" vertex="1" parent="GWFYVoU88pxUAnFRdsqJ-107">
          <mxGeometry x="45" y="492" width="10" height="46" as="geometry" />
        </mxCell>
        <mxCell id="GWFYVoU88pxUAnFRdsqJ-108" value="" style="html=1;points=[[0,0,0,0,5],[0,1,0,0,-5],[1,0,0,0,5],[1,1,0,0,-5]];perimeter=orthogonalPerimeter;outlineConnect=0;targetShapes=umlLifeline;portConstraint=eastwest;newEdgeStyle={&quot;curved&quot;:0,&quot;rounded&quot;:0};fillColor=#3333FF;" vertex="1" parent="1">
          <mxGeometry x="195" y="562" width="10" height="46" as="geometry" />
        </mxCell>
        <mxCell id="GWFYVoU88pxUAnFRdsqJ-110" value="display()" style="html=1;verticalAlign=bottom;endArrow=block;curved=0;rounded=0;" edge="1" parent="1" target="GWFYVoU88pxUAnFRdsqJ-107">
          <mxGeometry width="80" relative="1" as="geometry">
            <mxPoint x="200" y="560" as="sourcePoint" />
            <mxPoint x="280" y="560" as="targetPoint" />
          </mxGeometry>
        </mxCell>
      </root>
    </mxGraphModel>
  </diagram>
</mxfile>
